<svg xmlns="http://www.w3.org/2000/svg" aria-hidden="true" style="position:absolute;width:0;height:0;overflow:hidden"><defs><symbol id="icon-phone" viewBox="0 0 30 32"><path fill="#bea495" width="20px" d="m26.667 21.122-6.693-.774-3.2 3.198c-3.621-1.867-6.498-4.743-8.317-8.256l-.05-.106 3.212-3.212-.774-6.662H3.848c-.736 12.919 9.893 23.543 22.819 22.805v-6.993z" style="fill:var(--color1, #bea495)"/></symbol><symbol id="icon-youtube" viewBox="0 0 32 32"><path stroke-linecap="round" stroke-linejoin="round" stroke-width="1.454" d="M26.285 4.572H5.713a4.572 4.572 0 0 0-4.57 4.572v13.713a4.572 4.572 0 0 0 4.572 4.572h20.569a4.572 4.572 0 0 0 4.572-4.572V9.144a4.572 4.572 0 0 0-4.572-4.572z"/><path stroke-linecap="round" stroke-linejoin="round" stroke-width="1.454" d="M12.137 21.303v-9.626a.892.892 0 0 1 1.376-.749l-.004-.002 8.228 4.8a.915.915 0 0 1 .004 1.574l-.004.002-8.228 4.8a.916.916 0 0 1-1.371-.795v-.005z"/></symbol><symbol id="icon-linkedin" viewBox="0 0 32 32"><path d="M13.377 20.4h-2.134v-6.932h2.134V20.4zm-1.066-7.821c-.771 0-1.155-.356-1.155-1.066v-.017c0-.294.128-.557.332-.738l.001-.001c.206-.193.484-.312.79-.312h.033-.002c.768 0 1.153.358 1.153 1.068 0 .711-.384 1.066-1.153 1.066zm8.978 7.821h-2.176v-3.866c0-1.007-.358-1.511-1.069-1.511-.563 0-.931.282-1.111.844-.058.09-.087.269-.087.534v4h-2.179V15.69c0-1.066-.015-1.807-.044-2.221h1.866l.134.932c.489-.742 1.2-1.111 2.177-1.111.742 0 1.341.259 1.799.778.463.518.691 1.265.691 2.244v4.089zM16 28C9.382 28 4 22.618 4 16S9.382 4 16 4s12 5.382 12 12-5.382 12-12 12zm0-21.334c-5.152.007-9.327 4.182-9.334 9.333V16c.007 5.152 4.182 9.327 9.333 9.334H16c5.152-.007 9.327-4.182 9.334-9.333V16c-.007-5.152-4.182-9.327-9.333-9.334H16z"/></symbol><symbol id="icon-instagram" viewBox="0 0 32 32"><path d="M16 10a6 6 0 1 0 0 12 6 6 0 1 0 0-12zm0 10a4 4 0 0 1 0-8 4 4 0 0 1 0 8zm6-17.001H10a7.008 7.008 0 0 0-7.001 7v12a7.008 7.008 0 0 0 7 7.001h12A7.007 7.007 0 0 0 29 22V10a7.008 7.008 0 0 0-7-7.001zM27.001 22A5.001 5.001 0 0 1 22 27.001H10A5.001 5.001 0 0 1 4.999 22V9.999A4.999 4.999 0 0 1 9.998 5H22a5.001 5.001 0 0 1 5.001 5.001v12zM24 9.5a1.5 1.5 0 1 1-3 0 1.5 1.5 0 1 1 3 0z"/></symbol><symbol id="icon-facebook" viewBox="0 0 32 32"><path d="M16 3.001c-7.18 0-13.001 5.821-13.001 13.001S8.82 29.003 16 29.003s13.001-5.821 13.001-13.001V16c-.007-7.177-5.824-12.993-13-13.001H16zm1.001 23.953v-7.953H20a1 1 0 1 0 0-2.002h-3.001v-2.998a2 2 0 0 1 2-2h2a1 1 0 0 0 0-2H19a4 4 0 0 0-4 4v3.001h-3.001a.999.999 0 1 0 0 1.998H15v7.955c-5.629-.529-10-5.231-10-10.954C5 9.926 9.925 5.002 15.999 5.002s10.999 4.925 10.999 10.999c0 5.723-4.371 10.425-9.956 10.95l-.044.003z"/></symbol></defs></svg>